<svg xmlns="http://www.w3.org/2000/svg" height="48" viewBox="0 -960 960 960" width="48"><path d="M243.038-251.654q56.5-38.115 112.827-59.961Q412.192-333.462 480-333.462t124 21.847q56.192 21.846 114.039 59.961Q761-298.462 784.827-355.687q23.827-57.225 23.827-124.078 0-137.697-95.596-233.293T480-808.654q-137.462 0-233.058 95.596t-95.596 233.293q0 66.853 23.942 124.078 23.943 57.225 67.75 104.033Zm236.769-213.192q-50.384 0-84.249-34.058-33.866-34.058-33.866-84.442 0-50.385 34.058-84.25 34.058-33.866 84.443-33.866 50.384 0 84.249 34.058 33.866 34.058 33.866 84.443 0 50.384-34.058 84.25-34.058 33.865-84.443 33.865Zm.411 343.692q-74.586 0-140.178-28.186-65.591-28.186-114.066-76.923Q177.5-275 149.327-340.079q-28.173-65.079-28.173-139.995 0-74.41 28.186-139.78t76.923-114.008Q275-782.5 340.079-810.673q65.079-28.173 139.995-28.173 74.41 0 139.78 28.186t114.008 76.923Q782.5-685 810.673-619.703q28.173 65.298 28.173 139.485 0 74.586-28.186 140.178-28.186 65.591-76.923 114.066Q685-177.5 619.703-149.327q-65.298 28.173-139.485 28.173Zm-.271-30.192q56.476 0 112.072-19.404 55.596-19.404 101.058-58.635-45.462-34.461-99.207-54.173-53.745-19.711-113.787-19.711-60.042 0-114.697 18.884-54.655 18.885-97.694 55 44.693 39.231 100.236 58.635 55.543 19.404 112.019 19.404Zm.16-343.693q38.239 0 63.124-24.991 24.884-24.992 24.884-63.231 0-38.239-24.992-63.124-24.992-24.884-63.23-24.884-38.239 0-63.124 24.992-24.884 24.992-24.884 63.23 0 38.239 24.992 63.124 24.992 24.884 63.23 24.884ZM480-583.154Zm0 355.846Z"/></svg>