<svg xmlns="http://www.w3.org/2000/svg" height="48" viewBox="0 -960 960 960" width="48"><path d="M696.885-336.797q0 90.181-61.747 152.912-61.746 62.731-151.608 62.731-89.542 0-151.979-62.728-62.436-62.729-62.436-153.233V-690.16q0-62.308 42.837-105.497 42.836-43.189 104.367-43.189 61.547 0 105.133 43.381 43.587 43.382 43.587 105.426v334.078q0 34.961-23.123 58.634-23.122 23.673-58.308 23.673-33.716 0-57.739-23.716-24.023-23.717-24.023-58.591v-330.77h30.193v330.77q0 22.499 15.044 37.307 15.045 14.808 36.172 14.808 21.627 0 36.609-15.225 14.982-15.225 14.982-36.89v-334.847q-.385-48.769-34.481-83.307-34.096-34.539-83.741-34.539-49.273 0-83.295 34.675-34.021 34.676-34.021 83.94v352.527q-.385 78.281 53.488 132.224 53.873 53.942 130.947 53.942 76.946 0 130.39-54.327Q667.577-260 666.692-337.115v-349.616h30.193v349.934Z"/></svg>