<svg xmlns="http://www.w3.org/2000/svg" height="48" viewBox="0 -960 960 960" width="48"><path d="M191.346-191.346h37.385l465.192-465.346-37-37-465.577 464.577v37.769Zm-30.192 30.192v-79.808l547.923-549.731q4.334-2.717 10.186-5.32 5.851-2.603 12.226-2.603 6.005 0 11.393 2.135 5.387 2.135 10.541 5.788l37.5 37.885q3.385 3.885 5.654 9.892 2.269 6.008 2.269 11.399 0 6.632-2.343 12.364-2.344 5.731-5.648 9.875L240.962-161.154h-79.808Zm608.038-570.731-37.077-36.307 37.077 36.307ZM675.73-674.73l-18.807-18.962 37 37-18.193-18.038Z"/></svg>