<svg xmlns="http://www.w3.org/2000/svg" height="48" viewBox="0 -960 960 960" width="48"><path d="M175.961-161.154q-22.204 0-38.506-16.301-16.301-16.302-16.301-38.506v-113.923h717.692v113.923q0 22.204-16.301 38.506-16.302 16.301-38.506 16.301H175.961Zm-24.615-138.538v83.731q0 10.769 6.923 17.692t17.692 6.923h608.078q10.769 0 17.692-6.923t6.923-17.692v-83.731H151.346Zm328.712-158.962q-36.02 0-55.231 20.847-19.212 20.846-64.603 20.846-45.392 0-63.635-20.846-18.243-20.847-54.455-20.847-36.211 0-55.777 20.847-19.566 20.846-65.203 20.846v-30.193q33.633 0 54.25-20.846 20.616-20.846 66.356-20.846 45.74 0 64.12 20.846 18.379 20.846 54.389 20.846 36.011 0 54.996-20.846t64.838-20.846q45.853 0 64.702 20.846 18.849 20.846 55.06 20.846 36.212 0 53.654-20.846 17.443-20.846 63.193-20.846T783.416-468q20.954 20.846 55.43 20.846v30.193q-45.197 0-64.598-20.846-19.402-20.847-55.613-20.847-36.212 0-54.808 20.847-18.596 20.846-63.962 20.846-45.365 0-64.577-20.846-19.211-20.847-55.23-20.847ZM121.154-573.923v-24.5q0-89.808 81.346-145.116 81.346-55.307 277.5-55.307t277.5 55.307q81.346 55.308 81.346 145.116v24.5H121.154ZM480-768.654q-166.192 0-249.558 45.481-83.365 45.481-79.404 119.058h657.924q2.73-73.577-80.02-119.058-82.75-45.481-248.942-45.481Zm0 468.962Zm0-304.423Z"/></svg>