<svg xmlns="http://www.w3.org/2000/svg" height="48" viewBox="0 -960 960 960" width="48"><path d="M619.769-190.692 482.654-327.808l21.884-21.884 115.231 115.23 233.154-233.153 21.885 21.884-255.039 255.039Zm179.193-375.27h-30.193v-178.192q0-9.231-7.692-16.923-7.692-7.692-16.923-7.692h-85.577v74.077H301.423v-74.077h-85.577q-9.231 0-16.923 7.692-7.692 7.692-7.692 16.923v528.308q0 9.231 7.692 16.923 7.692 7.692 16.923 7.692h219.769v30.193H215.846q-23.454 0-39.131-15.443-15.677-15.442-15.677-39.365v-528.308q0-23.923 15.443-39.365 15.442-15.443 39.365-15.443h202.231q3.038-22.961 20.342-39.115 17.303-16.154 41.581-16.154 24.996 0 41.691 16.154 16.694 16.154 20.617 39.115h201.846q23.923 0 39.365 15.443 15.443 15.442 15.443 39.365v178.192ZM480.053-760q13.639 0 23.024-9.135 9.385-9.134 9.385-22.884t-9.289-22.885q-9.288-9.135-23.077-9.135-13.788 0-22.731 9.257-8.942 9.256-8.942 22.513 0 13.831 8.995 23.05Q466.413-760 480.053-760Z"/></svg>