<svg xmlns="http://www.w3.org/2000/svg" height="48" viewBox="0 -960 960 960" width="48"><path d="m414.461-121.154-16.153-114.115q-21.193-6.423-47.75-21.173Q324-271.192 304.308-289l-104.847 47.616-66.269-117.693 93.923-69.154q-2.384-12.436-3.461-25.372-1.077-12.935-1.077-25.628 0-11.192 1.077-24.673 1.077-13.481 3.077-28.096l-93.539-70.692 66.269-115.27 104.693 46.193q20-15.962 44.904-30.712 24.903-14.75 48.48-21.635l16.923-114.846h131.962l16.154 114.885q24.385 8.923 47.288 22.077 22.904 13.154 43.289 30.231l109.038-46.193 65.501 115.27-97.347 72.041q2.654 13.805 3.981 26.401t1.327 24.058q0 10.692-1.519 23.28-1.519 12.589-4.173 27.84l96.461 69.995-66.269 117.693-107-48.5q-21.125 18.632-43.89 32.874-22.764 14.241-46.687 20.972l-16.154 114.884H414.461Zm24.114-30.192h82.242l15.432-111.731q30.49-8.065 55.721-22.327 25.23-14.262 51.453-39.211l103.423 44.577 39.5-69.145-91.038-67.894q3.5-18.538 6.057-33.594 2.558-15.056 2.558-29.64 0-16.304-2.192-30.574-2.192-14.269-6.423-30.5l92.577-69.115-39.385-69.577L643.039-635.5q-19.808-21.154-50.097-39.808-30.288-18.654-57.634-22.5l-13.285-110.961h-83.715L426.346-698.13q-33.461 6.668-59.346 21.322-25.885 14.654-51.423 40.539l-103.192-43.808L172-610.5l91.308 66.192q-4.77 14.808-6.885 30.988t-2.115 33.559q0 17.03 1.865 32.126 1.865 15.097 5.865 30.673L172-349.615l40.076 69.577 103.116-43.693q23.731 25.269 50.366 39.596 26.634 14.327 59.847 22.327l13.17 110.462Zm39.318-233.846q39.912 0 67.337-27.448 27.424-27.449 27.424-67.366t-27.446-67.359q-27.447-27.443-67.362-27.443-40.038 0-67.423 27.448-27.385 27.449-27.385 67.366t27.385 67.36q27.385 27.442 67.47 27.442Zm2.492-95.308Z"/></svg>